<svg viewBox="0 0 60 48" xmlns="http://www.w3.org/2000/svg" class="cookies__img">
    <g fill="#fff">
        <path d="m51.1 30.1c0.4-2.3 1.9-4.4 4.5-5.2 0.3-1.4 0.5-2.8 0.5-4.3 0-10.4-8.4-18.9-18.9-18.9-6 0-11.4
                 2.8-14.8 7.2 7.5 1.4 13.5 7 15.4 14.3 0.1 0 0.3 0 0.4 0 0.8 0.1 1.7 1.4 1.7 1.4s-0.4 2-0.7 2.1c-0.1
                 0-0.5 0-0.8-0.1 0 0.5 0.1 1 0.1 1.5 0 4.1-1.3 8-3.5 11.1 0.8 0.1 1.5 0.1 2.3 0.1 2.6 0 5.1-0.5
                 7.3-1.5-0.4-3.7 1.8-7.8 6.6-7.9zm-1.1-16.6s0.6 1 0.8 1.3c0.2 0.3-0.5 0.3-1 0.5-0.5
                 0.1-0.9-0.2-0.9-0.2l-0.1-0.8c0.1-0.5 1.2-0.8 1.2-0.8zm-13.8-4.4c-0.5 0.5-0.7 0.8-1.4 0.8s-1.6 0.5-1.6
                 0c0.1-0.5 0-1.6 0-1.6 0.2-0.5 1.3-1.1 1.5-1.1s0.5 0 0.8 0.5 1.2 0.9 0.7 1.3zm2 7.9c-0.2-0.2 0-1.6
                 0-1.6s0-0.5 0.3-0.8c0.2-0.3 0.7-0.2 0.7-0.2 1.2 0.1 1.8 0.7 1.9 1.4 0.1 0.6-1.2 0.7-1.2 0.7s-1.4
                 0.8-1.6 0.6zm3.2 16.4c-0.5-0.2-0.5-0.2-0.5-0.4s0.2-0.4 0.2-0.4c-0.1-0.1 0.2-0.4 0.4-0.4 0.2 0 0.4 0.5
                 0.4 0.8 0 0.3 0.2 0.6-0.4 0.4zm1.6-22c-0.6-0.6-0.6-0.6-0.6-0.6l0.6-2.1s0.6-0.4 1-0.3 1.2 0.8 0.9
                 1.4c-0.3 0.6-1.4 2.2-1.9 1.6zm0.7 9.2c0.1-0.3 0.5-0.5 0.5-0.5 1.1-0.5 1.4-0.3 1.8 0.3 0.4 0.5 0.1 1.7
                 0.1 1.7s-1.3 0.9-1.6 0.8c-0.3-0.1-0.8-1.4-0.8-1.4s-0.2-0.5-0.1-0.8z"></path>
        <path d="m58.7 37.7s-1.1 0.3-1.2 0.8l0.1 0.8 0.5-0.1c0.5-0.1 0.8-0.1 0.6-0.4-0.2-0.3 0-1.1 0-1.1z"></path>
        <path d="m51.8 37.7h-1.1v0.8l-1.8-0.8-0.3-1s-1.7 0.6-1.8 1c-0.1 0.4-0.6 1.8-0.6 1.8s4 1.4
                6.2-0.7l-0.6-1.1z"></path>
        <path d="m31.7 15.3c-3.3-3.3-7.8-5.3-12.9-5.3s-9.6 2-12.9 5.3c-3.3 3.3-5.3 7.8-5.3 12.9 0 5 2 9.6 5.3
                12.9 3.3 3.3 7.8 5.3 12.9 5.3s9.6-2 12.9-5.3c3.3-3.3 5.3-7.8 5.3-12.9 0-5-2-9.6-5.3-12.9zm-27.8
                15.7l-0.5 0.1-0.1-0.8c0.1-0.5 1.2-0.8 1.2-0.8s-0.2 0.8 0 1.1c0.2 0.3-0.1 0.3-0.6 0.4zm3.1-12.1c0.2-0.2
                0.5-0.1 0.9 0s0.8 0.7 0.9 0.7c0.1 0-0.1 0.7-0.3 0.8s-0.7 0.3-0.8 0.3c-0.1 0-1.1-0.3-1.1-0.3 0-0.4
                0.3-1.3 0.5-1.5zm1.3 8.6h-2.1v-1.7s0.4-0.9 0.9-0.9 1.3-0.5 1.7 0 0.3 1.9 0.3 2c0 0-0.6 0.7-0.8
                0.7zm1.1 12.4c-0.1-0.2-0.6-1.3 0-1.3 0.6-0.1 1.3 0 1.3 0l0.3 1.3s-1.4 0.9-1.7 0zm3.2-5c-0.5 0.1-1.4
                0.4-1.7 0-0.3-0.4-0.8-0.4-0.8-1v-0.6c0.1-0.5 0.9-0.9 1.3-1.2s0.9-0.8 1.1 0c0.2 0.8 0.5 1.3 0.6 1.8 0.1
                0.5 0.1 0.9-0.4 1zm2.2-17.8c-0.1 0.3-0.3 0.7-0.8 0.9-0.5 0.2-2.4 0-2.4 0s-0.2-0.3 0-0.6 0.6-1.5
                0.6-1.5c0.2-0.2 1.7-0.2 2 0 0.3 0.2 0.6 0.8 0.6 1.1zm2.9 4.8c-0.6-0.6-0.6-0.6-0.6-0.6l0.6-2.1s0.6-0.4
                1-0.3 1.2 0.8 0.9 1.4c-0.3 0.6-1.4 2.2-1.9 1.6zm2.4 20.2c-0.2 0.2-0.7 0.3-0.8
                0.3s-1.1-0.3-1.1-0.3c0-0.4 0.3-1.3 0.5-1.5 0.2-0.2 0.5-0.1 0.9 0s0.8 0.7 0.9 0.7-0.1 0.7-0.3
                0.8zm0.8-4c-0.2 0.2-0.7 0.3-0.8 0.3s-1.1-0.3-1.1-0.3c0-0.4 0.3-1.3 0.5-1.5 0.2-0.2 0.5-0.1 0.9 0 0.4
                0.1 0.8 0.7 0.9 0.7 0.1 0-0.1 0.7-0.3 0.8zm1.7-9.2s-1.3 0.9-1.6
                0.8-0.8-1.4-0.8-1.4-0.2-0.5-0.1-0.8c0.1-0.3 0.5-0.5 0.5-0.5 1.1-0.5 1.4-0.3 1.8 0.3 0.4 0.5 0.1 1.7
                0.1 1.7zm0.2-15.5c-0.5 0.5-0.7 0.8-1.4 0.8-0.7 0-1.6 0.5-1.6 0s0-1.6 0-1.6c0.2-0.5 1.3-1.1 1.5-1.1s0.5
                0 0.8 0.5 1.2 0.9 0.7 1.3zm0.8 26.9c-0.5-0.2-0.5-0.2-0.5-0.4s0.2-0.4 0.2-0.4c-0.1-0.1 0.2-0.4 0.4-0.4
                0.2 0 0.4 0.5 0.4 0.8 0 0.3 0.2 0.6-0.4 0.4zm2.2-13.9c-0.2-0.2 0-1.6 0-1.6s0-0.5 0.3-0.8c0.2-0.3
                0.7-0.2 0.7-0.2 1.2 0.1 1.8 0.7 1.9 1.4 0.1 0.6-1.2 0.7-1.2 0.7s-1.4 0.8-1.6 0.5zm4.3 9.9c-0.4
                0.1-2-0.6-2-0.6s-0.6-0.2-0.8-0.6 0-0.9 0-0.9c0.6-1.4 1.1-1.5 1.9-1.4 0.8 0.1 1.7 1.4 1.7 1.4s-0.4
                2-0.7 2.1zm1.9-14c-0.5 0.1-0.9-0.2-0.9-0.2l-0.1-0.8c0.1-0.5 1.2-0.8 1.2-0.8s0.6 1 0.8 1.3c0.2 0.3-0.5
                0.3-1 0.5z"></path>
        <path d="m54.4 37.6s-0.5 0.2-0.5 0.5c-0.1 0.3 0.1 0.8 0.1 0.8s0.1 0.4 0.3 0.7h2c0 0 0.1-0.1
                0.1-0.1s0.3-1.2-0.1-1.7-0.7-0.7-1.8-0.3z"></path>
        <path d="m52.8 39.6s-0.5 0-0.5 0.1c0 0.2-0.1 0.5-0.1 0.5s0.2 0.1 0.3 0.2h0.9l0 0s0.3-0.6
                0.2-0.8-0.3-0.2-0.8 0z"></path>
    </g>
</svg>