<?xml version="1.0" encoding="UTF-8"?>
<svg xmlns="http://www.w3.org/2000/svg" width="40" height="35" viewBox="0 0 40 35" fill="none">
  <path d="M36.25 17.5H30V12.5C30 9.76562 32.1875 7.5 35 7.5H35.625C36.6406 7.5 37.5 6.71875 37.5 5.625V1.875C37.5 0.859375 36.6406 0 35.625 0H35C28.0469 0 22.5 5.625 22.5 12.5V31.25C22.5 33.3594 24.1406 35 26.25 35H36.25C38.2812 35 40 33.3594 40 31.25V21.25C40 19.2188 38.2812 17.5 36.25 17.5ZM13.75 17.5H7.5V12.5C7.5 9.76562 9.6875 7.5 12.5 7.5H13.125C14.1406 7.5 15 6.71875 15 5.625V1.875C15 0.859375 14.1406 0 13.125 0H12.5C5.54688 0 0 5.625 0 12.5V31.25C0 33.3594 1.64062 35 3.75 35H13.75C15.7812 35 17.5 33.3594 17.5 31.25V21.25C17.5 19.2188 15.7812 17.5 13.75 17.5Z" fill="#41B9AE"></path>
</svg>
