<svg width="128" height="128" viewBox="0 0 128 128" fill="none" xmlns="http://www.w3.org/2000/svg">
<g clip-path="url(#clip0_4748_83519)">
<path d="M41.6215 88.3971L37.12 33.3833L90.88 33.4939L86.1201 88.3971L64.2029 94.7434L41.6215 88.3971Z" fill="#1B73BA"/>
<path d="M64.2029 89.4302V38.6227L86.3416 38.6964L82.3937 84.1539L64.2029 89.4302Z" fill="#1C88C7"/>
<path d="M80.8438 45.1168H46.7872L47.7098 51.7579H63.8708L47.9682 58.5841L48.8904 65.0041H72.3206L71.4717 73.9699L63.5387 75.5199L56.3439 73.6751L55.7903 68.5831H49.1856L50.0709 79.1729L64.2397 83.1208L77.8185 78.804L79.5526 58.1042H65.1987L80.8433 51.6105L80.8438 45.1168Z" fill="white"/>
</g>
<defs>
<clipPath id="clip0_4748_83519">
<rect width="53.76" height="61.5667" fill="white" transform="translate(37.12 33.28)"/>
</clipPath>
</defs>
</svg>
