<svg width="128" height="128" viewBox="0 0 128 128" fill="none" xmlns="http://www.w3.org/2000/svg">
<g clip-path="url(#clip0_4748_83542)">
<g clip-path="url(#clip1_4748_83542)">
<path d="M45.9362 54.4C37.4978 56.576 31.9938 60.304 31.9938 64.56C31.9938 71.3024 46.0898 76.8 63.5138 76.8C65.8818 76.8 67.5458 76.6752 69.7538 76.4896" stroke="#00D8FF" stroke-width="3.94542" stroke-linecap="round" stroke-linejoin="round"/>
<path d="M57.0756 76.4807C55.754 74.5735 54.4964 72.8551 53.2996 70.7207C44.4964 55.0407 42.138 39.4567 48.0836 35.9271C51.7636 33.6967 57.834 36.7367 64.0004 43.1399" stroke="#00D8FF" stroke-width="3.94542" stroke-linecap="round" stroke-linejoin="round"/>
<path d="M46.1719 74.8384C43.9255 83.44 44.3799 89.9296 47.9639 92.1024C53.6695 95.5584 65.2023 85.8368 73.7015 70.3296C74.8535 68.1856 75.8871 66.0768 76.7991 64" stroke="#00D8FF" stroke-width="3.94542" stroke-linecap="round" stroke-linejoin="round"/>
<path d="M64 84.8635C70.1696 91.2636 76.2144 94.3036 79.9296 92.0732C85.8496 88.5468 83.5168 72.9627 74.704 57.2795C73.4752 55.1131 72.2176 53.4267 70.928 51.5195" stroke="#00D8FF" stroke-width="3.94542" stroke-linecap="round" stroke-linejoin="round"/>
<path d="M82.1158 73.6008C90.4742 71.4024 96.0038 67.6808 96.0038 63.4376C96.0038 56.6856 81.8982 51.2008 64.4998 51.2008C62.1094 51.2008 60.4486 51.2936 58.2438 51.4792" stroke="#00D8FF" stroke-width="3.94542" stroke-linecap="round" stroke-linejoin="round"/>
<path d="M51.1938 63.9992C52.1058 61.8872 53.1362 59.8136 54.2914 57.6696C62.7618 42.1688 74.301 32.4216 80.0386 35.9064C83.5906 38.0792 84.077 44.5656 81.8306 53.164" stroke="#00D8FF" stroke-width="3.94542" stroke-linecap="round" stroke-linejoin="round"/>
<path d="M64.839 64.0479H64.807C64.775 64.4639 64.423 64.8159 63.975 64.8159C63.7607 64.8053 63.5586 64.7133 63.4099 64.5586C63.2612 64.404 63.1772 64.1984 63.175 63.9839C63.175 63.5359 63.527 63.1839 63.943 63.1839H63.911C64.327 63.1519 64.711 63.5359 64.711 63.9519" stroke="#00D8FF" stroke-width="3.94542" stroke-linecap="round" stroke-linejoin="round"/>
</g>
</g>
<defs>
<clipPath id="clip0_4748_83542">
<rect width="76.8" height="76.8" fill="white" transform="translate(25.6 25.6)"/>
</clipPath>
<clipPath id="clip1_4748_83542">
<rect width="76.8" height="76.8" fill="white" transform="translate(25.6 25.6)"/>
</clipPath>
</defs>
</svg>
